<mxfile host="drawio-plugin" modified="2023-10-17T10:49:37.026Z" agent="5.0 (Windows NT 6.2; Win64; x64) AppleWebKit/537.36 (KHTML, like Gecko) Chrome/98.0.4758.102 Safari/537.36" version="20.5.3" etag="uo26pHknthHOVqYakqVw" type="embed"><diagram id="4cbZukHd-iRMYEPHZPCC" name="Page-1"><mxGraphModel dx="642" dy="546" grid="1" gridSize="10" guides="1" tooltips="1" connect="1" arrows="1" fold="1" page="1" pageScale="1" pageWidth="850" pageHeight="1100" math="0" shadow="0"><root><mxCell id="0"/><mxCell id="1" parent="0"/><mxCell id="4" value="" style="edgeStyle=orthogonalEdgeStyle;rounded=0;orthogonalLoop=1;jettySize=auto;html=1;" edge="1" parent="1" source="2" target="3"><mxGeometry relative="1" as="geometry"/></mxCell><mxCell id="2" value="Actor" style="shape=umlActor;verticalLabelPosition=bottom;verticalAlign=top;html=1;outlineConnect=0;" vertex="1" parent="1"><mxGeometry x="40" y="310" width="30" height="60" as="geometry"/></mxCell><mxCell id="6" value="" style="edgeStyle=orthogonalEdgeStyle;rounded=0;orthogonalLoop=1;jettySize=auto;html=1;fontSize=18;" edge="1" parent="1" source="3" target="5"><mxGeometry relative="1" as="geometry"><Array as="points"><mxPoint x="250" y="340"/><mxPoint x="250" y="260"/></Array></mxGeometry></mxCell><mxCell id="11" value="" style="edgeStyle=orthogonalEdgeStyle;rounded=0;orthogonalLoop=1;jettySize=auto;html=1;fontSize=18;" edge="1" parent="1" source="3" target="10"><mxGeometry relative="1" as="geometry"><Array as="points"><mxPoint x="250" y="340"/><mxPoint x="250" y="540"/></Array></mxGeometry></mxCell><mxCell id="3" value="&lt;div style=&quot;font-size: 18px;&quot;&gt;&lt;span style=&quot;background-color: initial; font-size: 18px;&quot;&gt;登录&lt;/span&gt;&lt;/div&gt;" style="rounded=1;whiteSpace=wrap;html=1;verticalAlign=middle;align=center;fontSize=18;" vertex="1" parent="1"><mxGeometry x="120" y="325" width="85" height="30" as="geometry"/></mxCell><mxCell id="36" style="edgeStyle=orthogonalEdgeStyle;rounded=0;orthogonalLoop=1;jettySize=auto;html=1;entryX=0;entryY=0.75;entryDx=0;entryDy=0;fontSize=18;" edge="1" parent="1" source="5" target="29"><mxGeometry relative="1" as="geometry"/></mxCell><mxCell id="37" style="edgeStyle=orthogonalEdgeStyle;rounded=0;orthogonalLoop=1;jettySize=auto;html=1;entryX=0;entryY=0.25;entryDx=0;entryDy=0;fontSize=18;" edge="1" parent="1" source="5" target="14"><mxGeometry relative="1" as="geometry"/></mxCell><mxCell id="38" style="edgeStyle=orthogonalEdgeStyle;rounded=0;orthogonalLoop=1;jettySize=auto;html=1;entryX=0;entryY=0.5;entryDx=0;entryDy=0;fontSize=18;" edge="1" parent="1" source="5" target="15"><mxGeometry relative="1" as="geometry"/></mxCell><mxCell id="5" value="监管者页面&lt;br&gt;（教师）" style="whiteSpace=wrap;html=1;fontSize=18;rounded=1;" vertex="1" parent="1"><mxGeometry x="280" y="230" width="120" height="60" as="geometry"/></mxCell><mxCell id="34" value="" style="edgeStyle=orthogonalEdgeStyle;rounded=0;orthogonalLoop=1;jettySize=auto;html=1;fontSize=18;" edge="1" parent="1" source="10" target="23"><mxGeometry relative="1" as="geometry"/></mxCell><mxCell id="35" style="edgeStyle=orthogonalEdgeStyle;rounded=0;orthogonalLoop=1;jettySize=auto;html=1;entryX=0;entryY=0.5;entryDx=0;entryDy=0;fontSize=18;" edge="1" parent="1" source="10" target="26"><mxGeometry relative="1" as="geometry"/></mxCell><mxCell id="10" value="实验者页面&lt;br&gt;（学生）" style="whiteSpace=wrap;html=1;fontSize=18;rounded=1;" vertex="1" parent="1"><mxGeometry x="280" y="510" width="120" height="60" as="geometry"/></mxCell><mxCell id="13" value="学生信息" style="rounded=1;whiteSpace=wrap;html=1;fontSize=18;" vertex="1" parent="1"><mxGeometry x="620" y="170" width="120" height="30" as="geometry"/></mxCell><mxCell id="14" value="实验管理" style="rounded=1;whiteSpace=wrap;html=1;fontSize=18;" vertex="1" parent="1"><mxGeometry x="480" y="280" width="120" height="30" as="geometry"/></mxCell><mxCell id="15" value="实验镜像库" style="rounded=1;whiteSpace=wrap;html=1;fontSize=18;" vertex="1" parent="1"><mxGeometry x="480" y="380" width="120" height="30" as="geometry"/></mxCell><mxCell id="16" value="基本信息" style="rounded=1;whiteSpace=wrap;html=1;fontSize=18;" vertex="1" parent="1"><mxGeometry x="760" y="130" width="120" height="30" as="geometry"/></mxCell><mxCell id="17" value="能力信息" style="rounded=1;whiteSpace=wrap;html=1;fontSize=18;" vertex="1" parent="1"><mxGeometry x="760" y="170" width="120" height="30" as="geometry"/></mxCell><mxCell id="18" value="发布实验" style="rounded=1;whiteSpace=wrap;html=1;fontSize=18;" vertex="1" parent="1"><mxGeometry x="620" y="240" width="120" height="30" as="geometry"/></mxCell><mxCell id="19" value="实时监控" style="rounded=1;whiteSpace=wrap;html=1;fontSize=18;" vertex="1" parent="1"><mxGeometry x="620" y="280" width="120" height="30" as="geometry"/></mxCell><mxCell id="20" value="历史记录" style="rounded=1;whiteSpace=wrap;html=1;fontSize=18;" vertex="1" parent="1"><mxGeometry x="620" y="320" width="120" height="30" as="geometry"/></mxCell><mxCell id="21" value="维护实验镜像" style="rounded=1;whiteSpace=wrap;html=1;fontSize=18;" vertex="1" parent="1"><mxGeometry x="620" y="380" width="120" height="30" as="geometry"/></mxCell><mxCell id="23" value="学生信息" style="rounded=1;whiteSpace=wrap;html=1;fontSize=18;" vertex="1" parent="1"><mxGeometry x="480" y="490" width="120" height="30" as="geometry"/></mxCell><mxCell id="24" value="基本信息" style="rounded=1;whiteSpace=wrap;html=1;fontSize=18;" vertex="1" parent="1"><mxGeometry x="620" y="450" width="120" height="30" as="geometry"/></mxCell><mxCell id="25" value="能力信息" style="rounded=1;whiteSpace=wrap;html=1;fontSize=18;" vertex="1" parent="1"><mxGeometry x="620" y="490" width="120" height="30" as="geometry"/></mxCell><mxCell id="26" value="实验信息" style="rounded=1;whiteSpace=wrap;html=1;fontSize=18;" vertex="1" parent="1"><mxGeometry x="480" y="590" width="120" height="30" as="geometry"/></mxCell><mxCell id="27" value="实时监控" style="rounded=1;whiteSpace=wrap;html=1;fontSize=18;" vertex="1" parent="1"><mxGeometry x="620" y="550" width="120" height="30" as="geometry"/></mxCell><mxCell id="28" value="历史记录" style="rounded=1;whiteSpace=wrap;html=1;fontSize=18;" vertex="1" parent="1"><mxGeometry x="620" y="590" width="120" height="30" as="geometry"/></mxCell><mxCell id="29" value="班级管理" style="rounded=1;whiteSpace=wrap;html=1;fontSize=18;" vertex="1" parent="1"><mxGeometry x="480" y="170" width="120" height="30" as="geometry"/></mxCell></root></mxGraphModel></diagram></mxfile>